<mxfile host="app.diagrams.net" modified="2024-06-23T01:55:13.204Z" agent="Mozilla/5.0 (Windows NT 10.0; Win64; x64; rv:127.0) Gecko/20100101 Firefox/127.0" etag="KKcxnlS4iYZPziYZ_uPY" version="24.5.4" type="device">
  <diagram id="C5RBs43oDa-KdzZeNtuy" name="Page-1">
    <mxGraphModel dx="4502" dy="3829" grid="1" gridSize="10" guides="1" tooltips="1" connect="1" arrows="1" fold="1" page="1" pageScale="1" pageWidth="827" pageHeight="1169" math="0" shadow="0">
      <root>
        <mxCell id="WIyWlLk6GJQsqaUBKTNV-0" />
        <mxCell id="WIyWlLk6GJQsqaUBKTNV-1" parent="WIyWlLk6GJQsqaUBKTNV-0" />
        <mxCell id="JpKbExhEeQci_IvhrCCR-0" style="edgeStyle=orthogonalEdgeStyle;rounded=0;orthogonalLoop=1;jettySize=auto;html=1;exitX=1;exitY=0.25;exitDx=0;exitDy=0;entryX=0;entryY=0.5;entryDx=0;entryDy=0;endArrow=none;endFill=0;" edge="1" parent="WIyWlLk6GJQsqaUBKTNV-1" source="JpKbExhEeQci_IvhrCCR-3" target="JpKbExhEeQci_IvhrCCR-8">
          <mxGeometry relative="1" as="geometry" />
        </mxCell>
        <mxCell id="JpKbExhEeQci_IvhrCCR-1" style="edgeStyle=orthogonalEdgeStyle;rounded=0;orthogonalLoop=1;jettySize=auto;html=1;exitX=0.5;exitY=0;exitDx=0;exitDy=0;endArrow=none;endFill=0;entryX=0.5;entryY=1;entryDx=0;entryDy=0;" edge="1" parent="WIyWlLk6GJQsqaUBKTNV-1" source="JpKbExhEeQci_IvhrCCR-3" target="JpKbExhEeQci_IvhrCCR-12">
          <mxGeometry relative="1" as="geometry">
            <mxPoint x="124.28571428571422" y="190" as="targetPoint" />
          </mxGeometry>
        </mxCell>
        <mxCell id="JpKbExhEeQci_IvhrCCR-2" style="edgeStyle=orthogonalEdgeStyle;rounded=0;orthogonalLoop=1;jettySize=auto;html=1;exitX=1;exitY=0.75;exitDx=0;exitDy=0;entryX=0;entryY=0.5;entryDx=0;entryDy=0;endArrow=none;endFill=0;" edge="1" parent="WIyWlLk6GJQsqaUBKTNV-1" source="JpKbExhEeQci_IvhrCCR-3" target="JpKbExhEeQci_IvhrCCR-14">
          <mxGeometry relative="1" as="geometry" />
        </mxCell>
        <mxCell id="JpKbExhEeQci_IvhrCCR-3" value="Usuários" style="rounded=0;whiteSpace=wrap;html=1;fontSize=22;" vertex="1" parent="WIyWlLk6GJQsqaUBKTNV-1">
          <mxGeometry x="44" y="229" width="160" height="80" as="geometry" />
        </mxCell>
        <mxCell id="JpKbExhEeQci_IvhrCCR-4" style="edgeStyle=orthogonalEdgeStyle;rounded=0;orthogonalLoop=1;jettySize=auto;html=1;exitX=1;exitY=0.25;exitDx=0;exitDy=0;entryX=0;entryY=0.25;entryDx=0;entryDy=0;endArrow=none;endFill=0;" edge="1" parent="WIyWlLk6GJQsqaUBKTNV-1" source="JpKbExhEeQci_IvhrCCR-6" target="JpKbExhEeQci_IvhrCCR-17">
          <mxGeometry relative="1" as="geometry" />
        </mxCell>
        <mxCell id="JpKbExhEeQci_IvhrCCR-5" style="edgeStyle=orthogonalEdgeStyle;rounded=0;orthogonalLoop=1;jettySize=auto;html=1;exitX=1;exitY=0.75;exitDx=0;exitDy=0;entryX=0.5;entryY=0;entryDx=0;entryDy=0;endArrow=none;endFill=0;" edge="1" parent="WIyWlLk6GJQsqaUBKTNV-1" source="JpKbExhEeQci_IvhrCCR-6" target="JpKbExhEeQci_IvhrCCR-27">
          <mxGeometry relative="1" as="geometry" />
        </mxCell>
        <mxCell id="JpKbExhEeQci_IvhrCCR-6" value="Compra" style="rounded=0;whiteSpace=wrap;html=1;fontSize=22;" vertex="1" parent="WIyWlLk6GJQsqaUBKTNV-1">
          <mxGeometry x="554" y="164" width="160" height="80" as="geometry" />
        </mxCell>
        <mxCell id="JpKbExhEeQci_IvhrCCR-7" style="edgeStyle=orthogonalEdgeStyle;rounded=0;orthogonalLoop=1;jettySize=auto;html=1;exitX=1;exitY=0.5;exitDx=0;exitDy=0;entryX=0;entryY=0.5;entryDx=0;entryDy=0;endArrow=none;endFill=0;" edge="1" parent="WIyWlLk6GJQsqaUBKTNV-1" source="JpKbExhEeQci_IvhrCCR-8" target="JpKbExhEeQci_IvhrCCR-6">
          <mxGeometry relative="1" as="geometry" />
        </mxCell>
        <mxCell id="JpKbExhEeQci_IvhrCCR-8" value="realiza" style="rhombus;whiteSpace=wrap;html=1;fontSize=22;" vertex="1" parent="WIyWlLk6GJQsqaUBKTNV-1">
          <mxGeometry x="284" y="139" width="130" height="130" as="geometry" />
        </mxCell>
        <mxCell id="JpKbExhEeQci_IvhrCCR-9" style="edgeStyle=orthogonalEdgeStyle;rounded=0;orthogonalLoop=1;jettySize=auto;html=1;exitX=1;exitY=0.5;exitDx=0;exitDy=0;entryX=0;entryY=0.75;entryDx=0;entryDy=0;endArrow=none;endFill=0;" edge="1" parent="WIyWlLk6GJQsqaUBKTNV-1" source="JpKbExhEeQci_IvhrCCR-11" target="JpKbExhEeQci_IvhrCCR-17">
          <mxGeometry relative="1" as="geometry" />
        </mxCell>
        <mxCell id="JpKbExhEeQci_IvhrCCR-10" style="edgeStyle=orthogonalEdgeStyle;rounded=0;orthogonalLoop=1;jettySize=auto;html=1;exitX=0.75;exitY=1;exitDx=0;exitDy=0;entryX=0.5;entryY=0;entryDx=0;entryDy=0;endArrow=none;endFill=0;" edge="1" parent="WIyWlLk6GJQsqaUBKTNV-1" source="JpKbExhEeQci_IvhrCCR-11" target="JpKbExhEeQci_IvhrCCR-25">
          <mxGeometry relative="1" as="geometry" />
        </mxCell>
        <mxCell id="JpKbExhEeQci_IvhrCCR-11" value="Empréstimo" style="rounded=0;whiteSpace=wrap;html=1;fontSize=22;" vertex="1" parent="WIyWlLk6GJQsqaUBKTNV-1">
          <mxGeometry x="554" y="294" width="160" height="80" as="geometry" />
        </mxCell>
        <mxCell id="JpKbExhEeQci_IvhrCCR-12" value="nome" style="ellipse;whiteSpace=wrap;html=1;" vertex="1" parent="WIyWlLk6GJQsqaUBKTNV-1">
          <mxGeometry x="64" y="110" width="120" height="80" as="geometry" />
        </mxCell>
        <mxCell id="JpKbExhEeQci_IvhrCCR-13" style="edgeStyle=orthogonalEdgeStyle;rounded=0;orthogonalLoop=1;jettySize=auto;html=1;exitX=1;exitY=0.5;exitDx=0;exitDy=0;entryX=0;entryY=0.5;entryDx=0;entryDy=0;endArrow=none;endFill=0;" edge="1" parent="WIyWlLk6GJQsqaUBKTNV-1" source="JpKbExhEeQci_IvhrCCR-14" target="JpKbExhEeQci_IvhrCCR-11">
          <mxGeometry relative="1" as="geometry">
            <mxPoint x="524" y="333.70588235294144" as="targetPoint" />
          </mxGeometry>
        </mxCell>
        <mxCell id="JpKbExhEeQci_IvhrCCR-14" value="realiza" style="rhombus;whiteSpace=wrap;html=1;fontSize=22;" vertex="1" parent="WIyWlLk6GJQsqaUBKTNV-1">
          <mxGeometry x="284" y="269" width="130" height="130" as="geometry" />
        </mxCell>
        <mxCell id="JpKbExhEeQci_IvhrCCR-15" style="edgeStyle=orthogonalEdgeStyle;rounded=0;orthogonalLoop=1;jettySize=auto;html=1;exitX=0.25;exitY=1;exitDx=0;exitDy=0;entryX=0.5;entryY=0;entryDx=0;entryDy=0;endArrow=none;endFill=0;" edge="1" parent="WIyWlLk6GJQsqaUBKTNV-1" source="JpKbExhEeQci_IvhrCCR-17" target="JpKbExhEeQci_IvhrCCR-19">
          <mxGeometry relative="1" as="geometry">
            <mxPoint x="939.3846153846152" y="341" as="targetPoint" />
          </mxGeometry>
        </mxCell>
        <mxCell id="JpKbExhEeQci_IvhrCCR-16" style="edgeStyle=orthogonalEdgeStyle;rounded=0;orthogonalLoop=1;jettySize=auto;html=1;exitX=0.75;exitY=1;exitDx=0;exitDy=0;entryX=0.5;entryY=0;entryDx=0;entryDy=0;endArrow=none;endFill=0;" edge="1" parent="WIyWlLk6GJQsqaUBKTNV-1" source="JpKbExhEeQci_IvhrCCR-17" target="JpKbExhEeQci_IvhrCCR-21">
          <mxGeometry relative="1" as="geometry">
            <mxPoint x="1019.3846153846152" y="341" as="targetPoint" />
          </mxGeometry>
        </mxCell>
        <mxCell id="JpKbExhEeQci_IvhrCCR-17" value="Livros" style="rounded=0;whiteSpace=wrap;html=1;fontSize=22;" vertex="1" parent="WIyWlLk6GJQsqaUBKTNV-1">
          <mxGeometry x="899" y="220" width="160" height="80" as="geometry" />
        </mxCell>
        <mxCell id="JpKbExhEeQci_IvhrCCR-18" style="edgeStyle=orthogonalEdgeStyle;rounded=0;orthogonalLoop=1;jettySize=auto;html=1;exitX=0.5;exitY=1;exitDx=0;exitDy=0;entryX=0.5;entryY=0;entryDx=0;entryDy=0;endArrow=none;endFill=0;" edge="1" parent="WIyWlLk6GJQsqaUBKTNV-1" source="JpKbExhEeQci_IvhrCCR-19" target="JpKbExhEeQci_IvhrCCR-22">
          <mxGeometry relative="1" as="geometry">
            <mxPoint x="903.272727272727" y="551" as="targetPoint" />
          </mxGeometry>
        </mxCell>
        <mxCell id="JpKbExhEeQci_IvhrCCR-19" value="detém" style="rhombus;whiteSpace=wrap;html=1;fontSize=22;" vertex="1" parent="WIyWlLk6GJQsqaUBKTNV-1">
          <mxGeometry x="839" y="369" width="130" height="130" as="geometry" />
        </mxCell>
        <mxCell id="JpKbExhEeQci_IvhrCCR-20" style="edgeStyle=orthogonalEdgeStyle;rounded=0;orthogonalLoop=1;jettySize=auto;html=1;exitX=0.5;exitY=1;exitDx=0;exitDy=0;entryX=0.5;entryY=0;entryDx=0;entryDy=0;endArrow=none;endFill=0;" edge="1" parent="WIyWlLk6GJQsqaUBKTNV-1" source="JpKbExhEeQci_IvhrCCR-21" target="JpKbExhEeQci_IvhrCCR-23">
          <mxGeometry relative="1" as="geometry">
            <mxPoint x="1068.9999999999998" y="561" as="targetPoint" />
          </mxGeometry>
        </mxCell>
        <mxCell id="JpKbExhEeQci_IvhrCCR-21" value="possui" style="rhombus;whiteSpace=wrap;html=1;fontSize=22;" vertex="1" parent="WIyWlLk6GJQsqaUBKTNV-1">
          <mxGeometry x="989" y="375" width="130" height="130" as="geometry" />
        </mxCell>
        <mxCell id="JpKbExhEeQci_IvhrCCR-22" value="Bibliotecas" style="rounded=0;whiteSpace=wrap;html=1;fontSize=22;" vertex="1" parent="WIyWlLk6GJQsqaUBKTNV-1">
          <mxGeometry x="834" y="561" width="140" height="80" as="geometry" />
        </mxCell>
        <mxCell id="JpKbExhEeQci_IvhrCCR-23" value="Gêneros" style="rounded=0;whiteSpace=wrap;html=1;fontSize=22;" vertex="1" parent="WIyWlLk6GJQsqaUBKTNV-1">
          <mxGeometry x="984" y="561" width="140" height="80" as="geometry" />
        </mxCell>
        <mxCell id="JpKbExhEeQci_IvhrCCR-24" style="edgeStyle=orthogonalEdgeStyle;rounded=0;orthogonalLoop=1;jettySize=auto;html=1;exitX=1;exitY=1;exitDx=0;exitDy=0;endArrow=none;endFill=0;" edge="1" parent="WIyWlLk6GJQsqaUBKTNV-1" source="JpKbExhEeQci_IvhrCCR-25">
          <mxGeometry relative="1" as="geometry">
            <mxPoint x="834" y="620" as="targetPoint" />
          </mxGeometry>
        </mxCell>
        <mxCell id="JpKbExhEeQci_IvhrCCR-25" value="&lt;div style=&quot;font-size: 20px;&quot; align=&quot;center&quot;&gt;é&lt;/div&gt;&lt;div style=&quot;font-size: 20px;&quot; align=&quot;center&quot;&gt;emprestado&lt;/div&gt;" style="rhombus;whiteSpace=wrap;html=1;fontSize=20;align=center;fillColor=default;verticalAlign=middle;labelPosition=center;verticalLabelPosition=middle;spacingTop=0;spacingBottom=28;" vertex="1" parent="WIyWlLk6GJQsqaUBKTNV-1">
          <mxGeometry x="609" y="523" width="130" height="130" as="geometry" />
        </mxCell>
        <mxCell id="JpKbExhEeQci_IvhrCCR-26" style="edgeStyle=orthogonalEdgeStyle;rounded=0;orthogonalLoop=1;jettySize=auto;html=1;exitX=0.5;exitY=1;exitDx=0;exitDy=0;entryX=0;entryY=0.25;entryDx=0;entryDy=0;strokeColor=default;align=center;verticalAlign=middle;fontFamily=Helvetica;fontSize=11;fontColor=default;labelBackgroundColor=default;endArrow=none;endFill=0;" edge="1" parent="WIyWlLk6GJQsqaUBKTNV-1" source="JpKbExhEeQci_IvhrCCR-27" target="JpKbExhEeQci_IvhrCCR-22">
          <mxGeometry relative="1" as="geometry" />
        </mxCell>
        <mxCell id="JpKbExhEeQci_IvhrCCR-27" value="&lt;div&gt;é&lt;/div&gt;&lt;div&gt;comprado&lt;/div&gt;" style="rhombus;whiteSpace=wrap;html=1;fontSize=22;align=center;fillColor=default;verticalAlign=middle;labelPosition=center;verticalLabelPosition=middle;spacingTop=0;spacingBottom=30;" vertex="1" parent="WIyWlLk6GJQsqaUBKTNV-1">
          <mxGeometry x="704" y="414" width="130" height="130" as="geometry" />
        </mxCell>
        <mxCell id="JpKbExhEeQci_IvhrCCR-28" style="edgeStyle=orthogonalEdgeStyle;rounded=0;orthogonalLoop=1;jettySize=auto;html=1;exitX=1;exitY=0.25;exitDx=0;exitDy=0;entryX=0;entryY=0.5;entryDx=0;entryDy=0;endArrow=none;endFill=0;" edge="1" parent="WIyWlLk6GJQsqaUBKTNV-1" source="JpKbExhEeQci_IvhrCCR-31" target="JpKbExhEeQci_IvhrCCR-35">
          <mxGeometry relative="1" as="geometry" />
        </mxCell>
        <mxCell id="JpKbExhEeQci_IvhrCCR-29" style="edgeStyle=orthogonalEdgeStyle;rounded=0;orthogonalLoop=1;jettySize=auto;html=1;exitX=0.5;exitY=0;exitDx=0;exitDy=0;endArrow=none;endFill=0;entryX=0.5;entryY=1;entryDx=0;entryDy=0;" edge="1" parent="WIyWlLk6GJQsqaUBKTNV-1" source="JpKbExhEeQci_IvhrCCR-31" target="JpKbExhEeQci_IvhrCCR-38">
          <mxGeometry relative="1" as="geometry">
            <mxPoint x="124.28571428571422" y="-560" as="targetPoint" />
          </mxGeometry>
        </mxCell>
        <mxCell id="JpKbExhEeQci_IvhrCCR-30" style="edgeStyle=orthogonalEdgeStyle;rounded=0;orthogonalLoop=1;jettySize=auto;html=1;exitX=1;exitY=0.75;exitDx=0;exitDy=0;entryX=0;entryY=0.5;entryDx=0;entryDy=0;endArrow=none;endFill=0;" edge="1" parent="WIyWlLk6GJQsqaUBKTNV-1" source="JpKbExhEeQci_IvhrCCR-31" target="JpKbExhEeQci_IvhrCCR-40">
          <mxGeometry relative="1" as="geometry" />
        </mxCell>
        <mxCell id="JpKbExhEeQci_IvhrCCR-31" value="Usuários" style="rounded=0;whiteSpace=wrap;html=1;fontSize=22;" vertex="1" parent="WIyWlLk6GJQsqaUBKTNV-1">
          <mxGeometry x="44" y="-521" width="160" height="80" as="geometry" />
        </mxCell>
        <mxCell id="JpKbExhEeQci_IvhrCCR-32" style="edgeStyle=orthogonalEdgeStyle;rounded=0;orthogonalLoop=1;jettySize=auto;html=1;exitX=1;exitY=0.5;exitDx=0;exitDy=0;entryX=0;entryY=0.25;entryDx=0;entryDy=0;endArrow=none;endFill=0;" edge="1" parent="WIyWlLk6GJQsqaUBKTNV-1" source="JpKbExhEeQci_IvhrCCR-33" target="JpKbExhEeQci_IvhrCCR-43">
          <mxGeometry relative="1" as="geometry" />
        </mxCell>
        <mxCell id="JpKbExhEeQci_IvhrCCR-33" value="Compra" style="rounded=0;whiteSpace=wrap;html=1;fontSize=22;" vertex="1" parent="WIyWlLk6GJQsqaUBKTNV-1">
          <mxGeometry x="554" y="-645" width="160" height="80" as="geometry" />
        </mxCell>
        <mxCell id="JpKbExhEeQci_IvhrCCR-34" style="edgeStyle=orthogonalEdgeStyle;rounded=0;orthogonalLoop=1;jettySize=auto;html=1;exitX=1;exitY=0.5;exitDx=0;exitDy=0;entryX=0;entryY=0.5;entryDx=0;entryDy=0;endArrow=none;endFill=0;" edge="1" parent="WIyWlLk6GJQsqaUBKTNV-1" source="JpKbExhEeQci_IvhrCCR-35" target="JpKbExhEeQci_IvhrCCR-33">
          <mxGeometry relative="1" as="geometry" />
        </mxCell>
        <mxCell id="JpKbExhEeQci_IvhrCCR-35" value="realiza" style="rhombus;whiteSpace=wrap;html=1;fontSize=22;" vertex="1" parent="WIyWlLk6GJQsqaUBKTNV-1">
          <mxGeometry x="284" y="-670" width="130" height="130" as="geometry" />
        </mxCell>
        <mxCell id="JpKbExhEeQci_IvhrCCR-36" style="edgeStyle=orthogonalEdgeStyle;rounded=0;orthogonalLoop=1;jettySize=auto;html=1;exitX=1;exitY=0.5;exitDx=0;exitDy=0;entryX=0;entryY=0.75;entryDx=0;entryDy=0;endArrow=none;endFill=0;" edge="1" parent="WIyWlLk6GJQsqaUBKTNV-1" source="JpKbExhEeQci_IvhrCCR-37" target="JpKbExhEeQci_IvhrCCR-43">
          <mxGeometry relative="1" as="geometry" />
        </mxCell>
        <mxCell id="JpKbExhEeQci_IvhrCCR-37" value="Empréstimo" style="rounded=0;whiteSpace=wrap;html=1;fontSize=22;" vertex="1" parent="WIyWlLk6GJQsqaUBKTNV-1">
          <mxGeometry x="560" y="-385" width="160" height="80" as="geometry" />
        </mxCell>
        <mxCell id="JpKbExhEeQci_IvhrCCR-38" value="nome" style="ellipse;whiteSpace=wrap;html=1;fontSize=22;" vertex="1" parent="WIyWlLk6GJQsqaUBKTNV-1">
          <mxGeometry x="64" y="-640" width="120" height="80" as="geometry" />
        </mxCell>
        <mxCell id="JpKbExhEeQci_IvhrCCR-39" style="edgeStyle=orthogonalEdgeStyle;rounded=0;orthogonalLoop=1;jettySize=auto;html=1;exitX=1;exitY=0.5;exitDx=0;exitDy=0;entryX=0;entryY=0.5;entryDx=0;entryDy=0;endArrow=none;endFill=0;" edge="1" parent="WIyWlLk6GJQsqaUBKTNV-1" source="JpKbExhEeQci_IvhrCCR-40" target="JpKbExhEeQci_IvhrCCR-37">
          <mxGeometry relative="1" as="geometry">
            <mxPoint x="524" y="-416.29411764705856" as="targetPoint" />
          </mxGeometry>
        </mxCell>
        <mxCell id="JpKbExhEeQci_IvhrCCR-40" value="realiza" style="rhombus;whiteSpace=wrap;html=1;fontSize=22;" vertex="1" parent="WIyWlLk6GJQsqaUBKTNV-1">
          <mxGeometry x="284" y="-410" width="130" height="130" as="geometry" />
        </mxCell>
        <mxCell id="JpKbExhEeQci_IvhrCCR-54" style="edgeStyle=orthogonalEdgeStyle;rounded=0;orthogonalLoop=1;jettySize=auto;html=1;exitX=1;exitY=0.5;exitDx=0;exitDy=0;entryX=0;entryY=0.5;entryDx=0;entryDy=0;endArrow=none;endFill=0;" edge="1" parent="WIyWlLk6GJQsqaUBKTNV-1" source="JpKbExhEeQci_IvhrCCR-43" target="JpKbExhEeQci_IvhrCCR-47">
          <mxGeometry relative="1" as="geometry" />
        </mxCell>
        <mxCell id="JpKbExhEeQci_IvhrCCR-43" value="Livros" style="rounded=0;whiteSpace=wrap;html=1;fontSize=22;" vertex="1" parent="WIyWlLk6GJQsqaUBKTNV-1">
          <mxGeometry x="974" y="-535" width="160" height="80" as="geometry" />
        </mxCell>
        <mxCell id="JpKbExhEeQci_IvhrCCR-46" style="edgeStyle=orthogonalEdgeStyle;rounded=0;orthogonalLoop=1;jettySize=auto;html=1;exitX=0.5;exitY=1;exitDx=0;exitDy=0;entryX=0.5;entryY=0;entryDx=0;entryDy=0;endArrow=none;endFill=0;" edge="1" parent="WIyWlLk6GJQsqaUBKTNV-1" source="JpKbExhEeQci_IvhrCCR-47" target="JpKbExhEeQci_IvhrCCR-49">
          <mxGeometry relative="1" as="geometry">
            <mxPoint x="1068.9999999999998" y="-189" as="targetPoint" />
          </mxGeometry>
        </mxCell>
        <mxCell id="JpKbExhEeQci_IvhrCCR-47" value="possui" style="rhombus;whiteSpace=wrap;html=1;fontSize=22;" vertex="1" parent="WIyWlLk6GJQsqaUBKTNV-1">
          <mxGeometry x="1305" y="-560" width="130" height="130" as="geometry" />
        </mxCell>
        <mxCell id="JpKbExhEeQci_IvhrCCR-49" value="Gêneros" style="rounded=0;whiteSpace=wrap;html=1;fontSize=22;" vertex="1" parent="WIyWlLk6GJQsqaUBKTNV-1">
          <mxGeometry x="1300" y="-340" width="140" height="80" as="geometry" />
        </mxCell>
        <mxCell id="JpKbExhEeQci_IvhrCCR-58" value="Funcionário" style="rounded=0;whiteSpace=wrap;html=1;fontSize=22;" vertex="1" parent="WIyWlLk6GJQsqaUBKTNV-1">
          <mxGeometry x="1000" y="-740" width="160" height="80" as="geometry" />
        </mxCell>
        <mxCell id="JpKbExhEeQci_IvhrCCR-78" style="edgeStyle=orthogonalEdgeStyle;rounded=0;orthogonalLoop=1;jettySize=auto;html=1;exitX=1;exitY=0.25;exitDx=0;exitDy=0;entryX=0;entryY=0.5;entryDx=0;entryDy=0;endArrow=none;endFill=0;" edge="1" source="JpKbExhEeQci_IvhrCCR-81" target="JpKbExhEeQci_IvhrCCR-85" parent="WIyWlLk6GJQsqaUBKTNV-1">
          <mxGeometry relative="1" as="geometry" />
        </mxCell>
        <mxCell id="JpKbExhEeQci_IvhrCCR-79" style="edgeStyle=orthogonalEdgeStyle;rounded=0;orthogonalLoop=1;jettySize=auto;html=1;exitX=0.5;exitY=0;exitDx=0;exitDy=0;endArrow=none;endFill=0;entryX=0.5;entryY=1;entryDx=0;entryDy=0;" edge="1" source="JpKbExhEeQci_IvhrCCR-81" target="JpKbExhEeQci_IvhrCCR-88" parent="WIyWlLk6GJQsqaUBKTNV-1">
          <mxGeometry relative="1" as="geometry">
            <mxPoint x="1900.2857142857142" y="-610" as="targetPoint" />
          </mxGeometry>
        </mxCell>
        <mxCell id="JpKbExhEeQci_IvhrCCR-80" style="edgeStyle=orthogonalEdgeStyle;rounded=0;orthogonalLoop=1;jettySize=auto;html=1;exitX=1;exitY=0.75;exitDx=0;exitDy=0;entryX=0;entryY=0.5;entryDx=0;entryDy=0;endArrow=none;endFill=0;" edge="1" source="JpKbExhEeQci_IvhrCCR-81" target="JpKbExhEeQci_IvhrCCR-90" parent="WIyWlLk6GJQsqaUBKTNV-1">
          <mxGeometry relative="1" as="geometry" />
        </mxCell>
        <mxCell id="JpKbExhEeQci_IvhrCCR-81" value="Usuários" style="rounded=0;whiteSpace=wrap;html=1;fontSize=22;" vertex="1" parent="WIyWlLk6GJQsqaUBKTNV-1">
          <mxGeometry x="1820" y="-571" width="160" height="80" as="geometry" />
        </mxCell>
        <mxCell id="JpKbExhEeQci_IvhrCCR-82" style="edgeStyle=orthogonalEdgeStyle;rounded=0;orthogonalLoop=1;jettySize=auto;html=1;exitX=1;exitY=0.25;exitDx=0;exitDy=0;entryX=0;entryY=0.25;entryDx=0;entryDy=0;endArrow=none;endFill=0;" edge="1" source="JpKbExhEeQci_IvhrCCR-83" target="JpKbExhEeQci_IvhrCCR-92" parent="WIyWlLk6GJQsqaUBKTNV-1">
          <mxGeometry relative="1" as="geometry" />
        </mxCell>
        <mxCell id="JpKbExhEeQci_IvhrCCR-83" value="Compra" style="rounded=0;whiteSpace=wrap;html=1;fontSize=22;" vertex="1" parent="WIyWlLk6GJQsqaUBKTNV-1">
          <mxGeometry x="2330" y="-741" width="160" height="80" as="geometry" />
        </mxCell>
        <mxCell id="JpKbExhEeQci_IvhrCCR-84" style="edgeStyle=orthogonalEdgeStyle;rounded=0;orthogonalLoop=1;jettySize=auto;html=1;exitX=1;exitY=0.5;exitDx=0;exitDy=0;entryX=0;entryY=0.5;entryDx=0;entryDy=0;endArrow=none;endFill=0;" edge="1" source="JpKbExhEeQci_IvhrCCR-85" target="JpKbExhEeQci_IvhrCCR-83" parent="WIyWlLk6GJQsqaUBKTNV-1">
          <mxGeometry relative="1" as="geometry" />
        </mxCell>
        <mxCell id="JpKbExhEeQci_IvhrCCR-85" value="realiza" style="rhombus;whiteSpace=wrap;html=1;fontSize=22;" vertex="1" parent="WIyWlLk6GJQsqaUBKTNV-1">
          <mxGeometry x="2060" y="-701" width="130" height="130" as="geometry" />
        </mxCell>
        <mxCell id="JpKbExhEeQci_IvhrCCR-86" style="edgeStyle=orthogonalEdgeStyle;rounded=0;orthogonalLoop=1;jettySize=auto;html=1;exitX=1;exitY=0.5;exitDx=0;exitDy=0;entryX=0;entryY=0.75;entryDx=0;entryDy=0;endArrow=none;endFill=0;" edge="1" source="JpKbExhEeQci_IvhrCCR-87" target="JpKbExhEeQci_IvhrCCR-92" parent="WIyWlLk6GJQsqaUBKTNV-1">
          <mxGeometry relative="1" as="geometry" />
        </mxCell>
        <mxCell id="JpKbExhEeQci_IvhrCCR-87" value="Empréstimo" style="rounded=0;whiteSpace=wrap;html=1;fontSize=22;" vertex="1" parent="WIyWlLk6GJQsqaUBKTNV-1">
          <mxGeometry x="2346" y="-330" width="160" height="80" as="geometry" />
        </mxCell>
        <mxCell id="JpKbExhEeQci_IvhrCCR-88" value="nome" style="ellipse;whiteSpace=wrap;html=1;" vertex="1" parent="WIyWlLk6GJQsqaUBKTNV-1">
          <mxGeometry x="1840" y="-690" width="120" height="80" as="geometry" />
        </mxCell>
        <mxCell id="JpKbExhEeQci_IvhrCCR-89" style="edgeStyle=orthogonalEdgeStyle;rounded=0;orthogonalLoop=1;jettySize=auto;html=1;exitX=1;exitY=0.5;exitDx=0;exitDy=0;entryX=0;entryY=0.5;entryDx=0;entryDy=0;endArrow=none;endFill=0;" edge="1" source="JpKbExhEeQci_IvhrCCR-90" target="JpKbExhEeQci_IvhrCCR-87" parent="WIyWlLk6GJQsqaUBKTNV-1">
          <mxGeometry relative="1" as="geometry">
            <mxPoint x="2300" y="-466.29411764705856" as="targetPoint" />
          </mxGeometry>
        </mxCell>
        <mxCell id="JpKbExhEeQci_IvhrCCR-90" value="realiza" style="rhombus;whiteSpace=wrap;html=1;fontSize=22;" vertex="1" parent="WIyWlLk6GJQsqaUBKTNV-1">
          <mxGeometry x="2060" y="-460" width="130" height="130" as="geometry" />
        </mxCell>
        <mxCell id="JpKbExhEeQci_IvhrCCR-91" style="edgeStyle=orthogonalEdgeStyle;rounded=0;orthogonalLoop=1;jettySize=auto;html=1;exitX=1;exitY=0.5;exitDx=0;exitDy=0;entryX=0;entryY=0.5;entryDx=0;entryDy=0;" edge="1" source="JpKbExhEeQci_IvhrCCR-92" target="JpKbExhEeQci_IvhrCCR-94" parent="WIyWlLk6GJQsqaUBKTNV-1">
          <mxGeometry relative="1" as="geometry" />
        </mxCell>
        <mxCell id="JpKbExhEeQci_IvhrCCR-92" value="Livros" style="rounded=0;whiteSpace=wrap;html=1;fontSize=22;" vertex="1" parent="WIyWlLk6GJQsqaUBKTNV-1">
          <mxGeometry x="2750" y="-585" width="160" height="80" as="geometry" />
        </mxCell>
        <mxCell id="JpKbExhEeQci_IvhrCCR-93" style="edgeStyle=orthogonalEdgeStyle;rounded=0;orthogonalLoop=1;jettySize=auto;html=1;exitX=0.5;exitY=1;exitDx=0;exitDy=0;entryX=0.5;entryY=0;entryDx=0;entryDy=0;endArrow=none;endFill=0;" edge="1" source="JpKbExhEeQci_IvhrCCR-94" target="JpKbExhEeQci_IvhrCCR-95" parent="WIyWlLk6GJQsqaUBKTNV-1">
          <mxGeometry relative="1" as="geometry">
            <mxPoint x="2845" y="-239" as="targetPoint" />
          </mxGeometry>
        </mxCell>
        <mxCell id="JpKbExhEeQci_IvhrCCR-94" value="possui" style="rhombus;whiteSpace=wrap;html=1;fontSize=22;" vertex="1" parent="WIyWlLk6GJQsqaUBKTNV-1">
          <mxGeometry x="3081" y="-610" width="130" height="130" as="geometry" />
        </mxCell>
        <mxCell id="JpKbExhEeQci_IvhrCCR-95" value="Gêneros" style="rounded=0;whiteSpace=wrap;html=1;fontSize=22;" vertex="1" parent="WIyWlLk6GJQsqaUBKTNV-1">
          <mxGeometry x="3076" y="-390" width="140" height="80" as="geometry" />
        </mxCell>
        <mxCell id="JpKbExhEeQci_IvhrCCR-96" value="Funcionário" style="rounded=0;whiteSpace=wrap;html=1;fontSize=22;" vertex="1" parent="WIyWlLk6GJQsqaUBKTNV-1">
          <mxGeometry x="2776" y="-790" width="160" height="80" as="geometry" />
        </mxCell>
        <mxCell id="JpKbExhEeQci_IvhrCCR-138" style="edgeStyle=orthogonalEdgeStyle;rounded=0;orthogonalLoop=1;jettySize=auto;html=1;exitX=1;exitY=0.25;exitDx=0;exitDy=0;entryX=0;entryY=0.5;entryDx=0;entryDy=0;endArrow=none;endFill=0;" edge="1" source="JpKbExhEeQci_IvhrCCR-141" target="JpKbExhEeQci_IvhrCCR-145" parent="WIyWlLk6GJQsqaUBKTNV-1">
          <mxGeometry relative="1" as="geometry">
            <Array as="points">
              <mxPoint x="2280" y="508" />
              <mxPoint x="2280" y="410" />
              <mxPoint x="2416" y="410" />
            </Array>
          </mxGeometry>
        </mxCell>
        <mxCell id="JpKbExhEeQci_IvhrCCR-139" style="edgeStyle=orthogonalEdgeStyle;rounded=0;orthogonalLoop=1;jettySize=auto;html=1;exitX=0.5;exitY=0;exitDx=0;exitDy=0;endArrow=none;endFill=0;entryX=0.5;entryY=1;entryDx=0;entryDy=0;" edge="1" source="JpKbExhEeQci_IvhrCCR-141" target="JpKbExhEeQci_IvhrCCR-148" parent="WIyWlLk6GJQsqaUBKTNV-1">
          <mxGeometry relative="1" as="geometry">
            <mxPoint x="2020.2857142857142" y="449" as="targetPoint" />
          </mxGeometry>
        </mxCell>
        <mxCell id="JpKbExhEeQci_IvhrCCR-140" style="edgeStyle=orthogonalEdgeStyle;rounded=0;orthogonalLoop=1;jettySize=auto;html=1;exitX=1;exitY=0.75;exitDx=0;exitDy=0;entryX=0;entryY=0.5;entryDx=0;entryDy=0;endArrow=none;endFill=0;" edge="1" source="JpKbExhEeQci_IvhrCCR-141" target="JpKbExhEeQci_IvhrCCR-150" parent="WIyWlLk6GJQsqaUBKTNV-1">
          <mxGeometry relative="1" as="geometry">
            <Array as="points">
              <mxPoint x="2280" y="548" />
              <mxPoint x="2280" y="735" />
            </Array>
          </mxGeometry>
        </mxCell>
        <mxCell id="JpKbExhEeQci_IvhrCCR-165" style="rounded=0;orthogonalLoop=1;jettySize=auto;html=1;exitX=0;exitY=0.25;exitDx=0;exitDy=0;entryX=1;entryY=1;entryDx=0;entryDy=0;strokeColor=default;align=center;verticalAlign=middle;fontFamily=Helvetica;fontSize=11;fontColor=default;labelBackgroundColor=default;endArrow=none;endFill=0;" edge="1" parent="WIyWlLk6GJQsqaUBKTNV-1" source="JpKbExhEeQci_IvhrCCR-141" target="JpKbExhEeQci_IvhrCCR-164">
          <mxGeometry relative="1" as="geometry" />
        </mxCell>
        <mxCell id="JpKbExhEeQci_IvhrCCR-141" value="Usuários" style="rounded=0;whiteSpace=wrap;html=1;fontSize=22;" vertex="1" parent="WIyWlLk6GJQsqaUBKTNV-1">
          <mxGeometry x="1940" y="488" width="160" height="80" as="geometry" />
        </mxCell>
        <mxCell id="JpKbExhEeQci_IvhrCCR-145" value="compra" style="rhombus;whiteSpace=wrap;html=1;fontSize=22;" vertex="1" parent="WIyWlLk6GJQsqaUBKTNV-1">
          <mxGeometry x="2416" y="344" width="130" height="130" as="geometry" />
        </mxCell>
        <mxCell id="JpKbExhEeQci_IvhrCCR-148" value="nome" style="ellipse;whiteSpace=wrap;html=1;fontSize=22;" vertex="1" parent="WIyWlLk6GJQsqaUBKTNV-1">
          <mxGeometry x="1960" y="369" width="120" height="80" as="geometry" />
        </mxCell>
        <mxCell id="JpKbExhEeQci_IvhrCCR-150" value="&lt;div&gt;faz&lt;/div&gt;&lt;div&gt;empréstimo&lt;br&gt;&lt;/div&gt;" style="rhombus;whiteSpace=wrap;html=1;fontSize=22;spacingTop=0;spacing=1;spacingBottom=28;" vertex="1" parent="WIyWlLk6GJQsqaUBKTNV-1">
          <mxGeometry x="2416" y="670" width="130" height="130" as="geometry" />
        </mxCell>
        <mxCell id="JpKbExhEeQci_IvhrCCR-158" style="edgeStyle=orthogonalEdgeStyle;rounded=0;orthogonalLoop=1;jettySize=auto;html=1;exitX=0;exitY=0.75;exitDx=0;exitDy=0;entryX=1;entryY=0.5;entryDx=0;entryDy=0;strokeColor=default;align=center;verticalAlign=middle;fontFamily=Helvetica;fontSize=11;fontColor=default;labelBackgroundColor=default;endArrow=none;endFill=0;" edge="1" parent="WIyWlLk6GJQsqaUBKTNV-1" source="JpKbExhEeQci_IvhrCCR-152" target="JpKbExhEeQci_IvhrCCR-150">
          <mxGeometry relative="1" as="geometry" />
        </mxCell>
        <mxCell id="JpKbExhEeQci_IvhrCCR-159" style="edgeStyle=orthogonalEdgeStyle;rounded=0;orthogonalLoop=1;jettySize=auto;html=1;exitX=0;exitY=0.25;exitDx=0;exitDy=0;entryX=1;entryY=0.5;entryDx=0;entryDy=0;strokeColor=default;align=center;verticalAlign=middle;fontFamily=Helvetica;fontSize=11;fontColor=default;labelBackgroundColor=default;endArrow=none;endFill=0;" edge="1" parent="WIyWlLk6GJQsqaUBKTNV-1" source="JpKbExhEeQci_IvhrCCR-152" target="JpKbExhEeQci_IvhrCCR-145">
          <mxGeometry relative="1" as="geometry" />
        </mxCell>
        <mxCell id="JpKbExhEeQci_IvhrCCR-161" style="rounded=0;orthogonalLoop=1;jettySize=auto;html=1;exitX=0.25;exitY=1;exitDx=0;exitDy=0;entryX=1;entryY=0;entryDx=0;entryDy=0;strokeColor=default;align=center;verticalAlign=middle;fontFamily=Helvetica;fontSize=11;fontColor=default;labelBackgroundColor=default;endArrow=none;endFill=0;" edge="1" parent="WIyWlLk6GJQsqaUBKTNV-1" source="JpKbExhEeQci_IvhrCCR-152" target="JpKbExhEeQci_IvhrCCR-160">
          <mxGeometry relative="1" as="geometry" />
        </mxCell>
        <mxCell id="JpKbExhEeQci_IvhrCCR-163" style="rounded=0;orthogonalLoop=1;jettySize=auto;html=1;exitX=0.5;exitY=1;exitDx=0;exitDy=0;entryX=0.5;entryY=0;entryDx=0;entryDy=0;strokeColor=default;align=center;verticalAlign=middle;fontFamily=Helvetica;fontSize=11;fontColor=default;labelBackgroundColor=default;endArrow=none;endFill=0;" edge="1" parent="WIyWlLk6GJQsqaUBKTNV-1" source="JpKbExhEeQci_IvhrCCR-152" target="JpKbExhEeQci_IvhrCCR-162">
          <mxGeometry relative="1" as="geometry" />
        </mxCell>
        <mxCell id="JpKbExhEeQci_IvhrCCR-171" style="rounded=0;orthogonalLoop=1;jettySize=auto;html=1;exitX=0.75;exitY=1;exitDx=0;exitDy=0;entryX=0.5;entryY=0;entryDx=0;entryDy=0;strokeColor=default;align=center;verticalAlign=middle;fontFamily=Helvetica;fontSize=11;fontColor=default;labelBackgroundColor=default;endArrow=none;endFill=0;" edge="1" parent="WIyWlLk6GJQsqaUBKTNV-1" source="JpKbExhEeQci_IvhrCCR-152" target="JpKbExhEeQci_IvhrCCR-170">
          <mxGeometry relative="1" as="geometry" />
        </mxCell>
        <mxCell id="JpKbExhEeQci_IvhrCCR-176" style="rounded=0;orthogonalLoop=1;jettySize=auto;html=1;exitX=1;exitY=0.75;exitDx=0;exitDy=0;entryX=0;entryY=0.5;entryDx=0;entryDy=0;strokeColor=default;align=center;verticalAlign=middle;fontFamily=Helvetica;fontSize=11;fontColor=default;labelBackgroundColor=default;endArrow=none;endFill=0;" edge="1" parent="WIyWlLk6GJQsqaUBKTNV-1" source="JpKbExhEeQci_IvhrCCR-152" target="JpKbExhEeQci_IvhrCCR-175">
          <mxGeometry relative="1" as="geometry" />
        </mxCell>
        <mxCell id="JpKbExhEeQci_IvhrCCR-152" value="Livros" style="rounded=0;whiteSpace=wrap;html=1;fontSize=22;" vertex="1" parent="WIyWlLk6GJQsqaUBKTNV-1">
          <mxGeometry x="2830" y="530" width="160" height="80" as="geometry" />
        </mxCell>
        <mxCell id="JpKbExhEeQci_IvhrCCR-160" value="gênero" style="ellipse;whiteSpace=wrap;html=1;fontSize=22;" vertex="1" parent="WIyWlLk6GJQsqaUBKTNV-1">
          <mxGeometry x="2710" y="641" width="120" height="80" as="geometry" />
        </mxCell>
        <mxCell id="JpKbExhEeQci_IvhrCCR-162" value="título" style="ellipse;whiteSpace=wrap;html=1;fontSize=22;" vertex="1" parent="WIyWlLk6GJQsqaUBKTNV-1">
          <mxGeometry x="2835" y="665" width="120" height="80" as="geometry" />
        </mxCell>
        <mxCell id="JpKbExhEeQci_IvhrCCR-164" value="CPF" style="ellipse;whiteSpace=wrap;html=1;fontSize=22;fontStyle=4" vertex="1" parent="WIyWlLk6GJQsqaUBKTNV-1">
          <mxGeometry x="1810" y="419" width="120" height="80" as="geometry" />
        </mxCell>
        <mxCell id="JpKbExhEeQci_IvhrCCR-170" value="valor" style="ellipse;whiteSpace=wrap;html=1;fontSize=22;" vertex="1" parent="WIyWlLk6GJQsqaUBKTNV-1">
          <mxGeometry x="2970" y="710" width="120" height="80" as="geometry" />
        </mxCell>
        <mxCell id="JpKbExhEeQci_IvhrCCR-172" value="Faculdade" style="rounded=0;whiteSpace=wrap;html=1;fontSize=22;" vertex="1" parent="WIyWlLk6GJQsqaUBKTNV-1">
          <mxGeometry x="2830" y="289" width="160" height="80" as="geometry" />
        </mxCell>
        <mxCell id="JpKbExhEeQci_IvhrCCR-174" style="rounded=0;orthogonalLoop=1;jettySize=auto;html=1;exitX=0;exitY=0;exitDx=0;exitDy=0;entryX=1;entryY=1;entryDx=0;entryDy=0;strokeColor=default;align=center;verticalAlign=middle;fontFamily=Helvetica;fontSize=11;fontColor=default;labelBackgroundColor=default;endArrow=none;endFill=0;" edge="1" parent="WIyWlLk6GJQsqaUBKTNV-1" source="JpKbExhEeQci_IvhrCCR-173" target="JpKbExhEeQci_IvhrCCR-152">
          <mxGeometry relative="1" as="geometry" />
        </mxCell>
        <mxCell id="JpKbExhEeQci_IvhrCCR-173" value="faculdade_jd" style="ellipse;whiteSpace=wrap;html=1;fontSize=22;" vertex="1" parent="WIyWlLk6GJQsqaUBKTNV-1">
          <mxGeometry x="3110" y="740" width="140" height="90" as="geometry" />
        </mxCell>
        <mxCell id="JpKbExhEeQci_IvhrCCR-175" value="id" style="ellipse;whiteSpace=wrap;html=1;fontSize=22;" vertex="1" parent="WIyWlLk6GJQsqaUBKTNV-1">
          <mxGeometry x="3130" y="636" width="140" height="90" as="geometry" />
        </mxCell>
      </root>
    </mxGraphModel>
  </diagram>
</mxfile>
